# xmcd
#
# Track frame offsets:
#	150
#	9888
#	20456
#	33866
#	46343
#	63413
#	73588
#	88368
#	98536
#	108598
#	123206
#	136618
#	147498
#	156955
#	168488
#	176888
#	190013
#
# Disc length: 2662 seconds
#
# Revision: 0
# Processed by: cddbd v1.5PL3 Copyright (c) Steve Scherf et al.
# Submitted via: audiograbber 1.82.01
#
DISCID=df0a6411
DTITLE=Roy Orbison - A Legend in My Time
DYEAR=1999
DGENRE=
TTITLE0=Blue, Blue Day
TTITLE1=Lonesome Number One
TTITLE2=I Don´t Really Want You
TTITLE3=Too Soon To Know
TTITLE4=Born To Love Me
TTITLE5=The Same Street
TTITLE6=Oh, Such A Stranger
TTITLE7=(I´d Be A) Legend In My Time
TTITLE8=Yes I´m Hurting
TTITLE9=Old Love Song
TTITLE10=Under Suspicion
TTITLE11=No Chain At All
TTITLE12=What About Me
TTITLE13=Belinda
TTITLE14=Big Hearted Me
TTITLE15=(I´m A) Southern Man
TTITLE16=Can´t Wait
EXTD=
EXTT0=
EXTT1=
EXTT2=
EXTT3=
EXTT4=
EXTT5=
EXTT6=
EXTT7=
EXTT8=
EXTT9=
EXTT10=
EXTT11=
EXTT12=
EXTT13=
EXTT14=
EXTT15=
EXTT16=
PLAYORDER=
